<?xml version="1.0" standalone="no"?><!DOCTYPE svg PUBLIC "-//W3C//DTD SVG 1.1//EN" "http://www.w3.org/Graphics/SVG/1.1/DTD/svg11.dtd"><svg t="1628081342669" class="icon" viewBox="0 0 1024 1024" version="1.1" xmlns="http://www.w3.org/2000/svg" p-id="2165" xmlns:xlink="http://www.w3.org/1999/xlink" width="200" height="200"><defs><style type="text/css"></style></defs><path d="M954.88 271.22c9.91-49.97-4.46-94.18-34.23-125.73-6.05-6.41-12.74-12.29-19.99-17.6 2.85 9.51 4.68 19.45 5.34 29.73 1.06 16.45-0.81 33.77-6.02 51.6-96.35 329.76-369.82 506.73-447.27 551.2-13.79 7.92-28.4 14.45-43.52 19.53-110.89 37.21-197.42 25.92-258.34 3.13-33.68-12.6-59.53-28.71-77.33-42.09 2.97 11.44 6.85 22.97 11.79 34.58 6.04 14.17 13.63 28.45 22.95 42.79 5.63 8.66 11.88 17.34 18.8 26.04 7.64 9.59 16.71 18.14 26.94 25.53 44.3 32.02 170.77 101.26 356.49 20.76 14.8-6.42 28.97-14.27 42.17-23.45 74.19-51.58 334.35-253.91 402.22-596.02z" fill="#1E4B1B" p-id="2166"></path><path d="M906 157.63c-0.66-10.29-2.48-20.23-5.34-29.73-15.54-11.38-33.67-20.08-53.65-25.54-33.06-9.03-71.18-9.18-111.05 2.18-2.64 0.75-5.3 1.53-8 2.35-10.2 3.08-20.16 6.99-29.9 11.5-73.4 33.96-413.52 193.6-474.66 263.36-49.54 56.56-163.16 174.16-157.17 310.67 0.7 15.95 3.04 32.16 7.3 48.57 17.8 13.38 43.66 29.49 77.33 42.09 60.92 22.79 147.45 34.08 258.34-3.13 15.12-5.07 29.74-11.61 43.52-19.53 77.45-44.47 350.92-221.43 447.27-551.2 5.21-17.82 7.07-35.15 6.01-51.59z" fill="#A1D34E" p-id="2167"></path><path d="M842.66 192.66v-0.28c0.08-17.76-9.64-33.69-24.63-41.57a127.1 127.1 0 0 0-20.86-8.66c-26.79-8.43-58.29-8.85-91.91 1.14-2.23 0.66-4.47 1.35-6.75 2.07-8.61 2.71-17.08 6.18-25.39 10.19-62.67 30.21-353.22 172.25-407.87 234.98-44.31 50.86-145.15 156.52-148.26 280.22 0 0.14-0.01 0.29-0.01 0.43-0.65 28.09 13.37 54 36.34 67.82 8.45 5.08 17.86 10.02 28.27 14.5 49.01 21.1 119.87 31.98 213.72-0.9 12.8-4.48 25.26-10.29 37.13-17.36 66.64-39.7 303.12-197.93 402.22-495.9 5.34-16.1 7.91-31.78 8-46.68z" fill="#F6F29E" p-id="2168"></path><path d="M327.875292 562.739489a114.48 124.5 54.989 1 0 203.941436-142.859689 114.48 124.5 54.989 1 0-203.941436 142.859689Z" fill="#8C6239" p-id="2169"></path><path d="M472 456.88m-22.9 0a22.9 22.9 0 1 0 45.8 0 22.9 22.9 0 1 0-45.8 0Z" fill="#FFFFFF" p-id="2170"></path><path d="M495.74 494.6m-7.15 0a7.15 7.15 0 1 0 14.3 0 7.15 7.15 0 1 0-14.3 0Z" fill="#FFFFFF" p-id="2171"></path></svg>